<svg width="291" height="56" viewBox="0 0 291 56" fill="none" xmlns="http://www.w3.org/2000/svg">
<rect width="291" height="56" rx="18" fill="#150E0E"/>
<path d="M26 25.3333V29.3333" stroke="#791F1F" stroke-width="2.66667" stroke-linecap="round" stroke-linejoin="round"/>
<circle cx="25.9998" cy="33.3333" r="1.33333" fill="#791F1F"/>
<path d="M27.1492 17.9537L38.1514 36.6573C38.5247 37.292 38.3128 38.1092 37.6781 38.4826C37.4732 38.6031 37.2398 38.6667 37.0021 38.6667H14.9979C14.2615 38.6667 13.6646 38.0697 13.6646 37.3333C13.6646 37.0956 13.7281 36.8622 13.8486 36.6573L24.8507 17.9537C25.2241 17.319 26.0413 17.1071 26.676 17.4805C26.8714 17.5954 27.0343 17.7583 27.1492 17.9537Z" stroke="#791F1F" stroke-width="2.66667" stroke-linecap="round" stroke-linejoin="round"/>
<path d="M54.6392 24.1911V21.9091H65.3906V24.1911H61.3828V35H58.647V24.1911H54.6392ZM69.8331 29.3239V35H67.1101V21.9091H69.7564V26.9141H69.8714C70.093 26.3345 70.451 25.8807 70.9453 25.5526C71.4396 25.2202 72.0597 25.054 72.8054 25.054C73.4872 25.054 74.0817 25.2031 74.5888 25.5014C75.1001 25.7955 75.4964 26.2195 75.7777 26.7734C76.0632 27.3232 76.2038 27.9815 76.1996 28.7486V35H73.4766V29.2344C73.4808 28.6293 73.3274 28.1584 73.0163 27.8217C72.7095 27.4851 72.2791 27.3168 71.7251 27.3168C71.3544 27.3168 71.0263 27.3956 70.7408 27.5533C70.4595 27.7109 70.2379 27.9411 70.076 28.2436C69.9183 28.5419 69.8374 28.902 69.8331 29.3239ZM78.3425 35V25.1818H81.0655V35H78.3425ZM79.7104 23.9162C79.3056 23.9162 78.9583 23.782 78.6685 23.5135C78.383 23.2408 78.2402 22.9148 78.2402 22.5355C78.2402 22.1605 78.383 21.8388 78.6685 21.5703C78.9583 21.2976 79.3056 21.1612 79.7104 21.1612C80.1152 21.1612 80.4604 21.2976 80.7459 21.5703C81.0357 21.8388 81.1806 22.1605 81.1806 22.5355C81.1806 22.9148 81.0357 23.2408 80.7459 23.5135C80.4604 23.782 80.1152 23.9162 79.7104 23.9162ZM91.4158 27.9815L88.9229 28.1349C88.8803 27.9219 88.7887 27.7301 88.6481 27.5597C88.5075 27.3849 88.3221 27.2464 88.092 27.1442C87.8661 27.0376 87.5955 26.9844 87.2802 26.9844C86.8583 26.9844 86.5025 27.0739 86.2127 27.2528C85.9229 27.4276 85.7781 27.6619 85.7781 27.956C85.7781 28.1903 85.8718 28.3885 86.0593 28.5504C86.2468 28.7124 86.5685 28.8423 87.0245 28.9403L88.8015 29.2983C89.756 29.4943 90.4677 29.8097 90.9364 30.2443C91.4052 30.679 91.6396 31.25 91.6396 31.9574C91.6396 32.6009 91.4499 33.1655 91.0707 33.6513C90.6957 34.1371 90.18 34.5163 89.5238 34.7891C88.8718 35.0575 88.1197 35.1918 87.2674 35.1918C85.9677 35.1918 84.9322 34.9212 84.1609 34.38C83.3938 33.8345 82.9442 33.093 82.8121 32.1555L85.4904 32.0149C85.5714 32.4112 85.7674 32.7138 86.0785 32.9226C86.3896 33.1271 86.788 33.2294 87.2738 33.2294C87.7511 33.2294 88.1346 33.1378 88.4244 32.9545C88.7184 32.767 88.8675 32.5263 88.8718 32.2322C88.8675 31.9851 88.7631 31.7827 88.5586 31.625C88.354 31.4631 88.0387 31.3395 87.6126 31.2543L85.9123 30.9155C84.9535 30.7237 84.2397 30.3913 83.771 29.9183C83.3065 29.4453 83.0742 28.8423 83.0742 28.1094C83.0742 27.4787 83.2447 26.9354 83.5856 26.4794C83.9308 26.0234 84.4144 25.6719 85.0366 25.4247C85.663 25.1776 86.396 25.054 87.2354 25.054C88.4755 25.054 89.4513 25.3161 90.163 25.8402C90.8789 26.3643 91.2965 27.0781 91.4158 27.9815ZM105.689 27.9815L103.196 28.1349C103.154 27.9219 103.062 27.7301 102.922 27.5597C102.781 27.3849 102.596 27.2464 102.365 27.1442C102.14 27.0376 101.869 26.9844 101.554 26.9844C101.132 26.9844 100.776 27.0739 100.486 27.2528C100.196 27.4276 100.051 27.6619 100.051 27.956C100.051 28.1903 100.145 28.3885 100.333 28.5504C100.52 28.7124 100.842 28.8423 101.298 28.9403L103.075 29.2983C104.029 29.4943 104.741 29.8097 105.21 30.2443C105.679 30.679 105.913 31.25 105.913 31.9574C105.913 32.6009 105.723 33.1655 105.344 33.6513C104.969 34.1371 104.453 34.5163 103.797 34.7891C103.145 35.0575 102.393 35.1918 101.541 35.1918C100.241 35.1918 99.2056 34.9212 98.4343 34.38C97.6673 33.8345 97.2177 33.093 97.0856 32.1555L99.7638 32.0149C99.8448 32.4112 100.041 32.7138 100.352 32.9226C100.663 33.1271 101.061 33.2294 101.547 33.2294C102.025 33.2294 102.408 33.1378 102.698 32.9545C102.992 32.767 103.141 32.5263 103.145 32.2322C103.141 31.9851 103.037 31.7827 102.832 31.625C102.627 31.4631 102.312 31.3395 101.886 31.2543L100.186 30.9155C99.2269 30.7237 98.5131 30.3913 98.0444 29.9183C97.5799 29.4453 97.3477 28.8423 97.3477 28.1094C97.3477 27.4787 97.5181 26.9354 97.859 26.4794C98.2042 26.0234 98.6879 25.6719 99.31 25.4247C99.9364 25.1776 100.669 25.054 101.509 25.054C102.749 25.054 103.725 25.3161 104.436 25.8402C105.152 26.3643 105.57 27.0781 105.689 27.9815ZM112.102 35.1918C111.092 35.1918 110.223 34.9872 109.494 34.5781C108.77 34.1648 108.211 33.581 107.819 32.8267C107.427 32.0682 107.231 31.1712 107.231 30.1357C107.231 29.1257 107.427 28.2393 107.819 27.4766C108.211 26.7138 108.763 26.1193 109.475 25.6932C110.191 25.267 111.03 25.054 111.993 25.054C112.641 25.054 113.244 25.1584 113.802 25.3672C114.365 25.5717 114.855 25.8807 115.273 26.294C115.694 26.7074 116.023 27.2273 116.257 27.8537C116.491 28.4759 116.608 29.2045 116.608 30.0398V30.7876H108.318V29.1001H114.045C114.045 28.7081 113.96 28.3608 113.79 28.0582C113.619 27.7557 113.383 27.5192 113.08 27.3487C112.782 27.174 112.434 27.0866 112.038 27.0866C111.625 27.0866 111.258 27.1825 110.939 27.3743C110.623 27.5618 110.376 27.8153 110.197 28.1349C110.018 28.4503 109.927 28.8018 109.922 29.1896V30.794C109.922 31.2798 110.012 31.6996 110.191 32.0533C110.374 32.407 110.632 32.6797 110.964 32.8714C111.297 33.0632 111.691 33.1591 112.147 33.1591C112.449 33.1591 112.726 33.1165 112.978 33.0312C113.229 32.946 113.444 32.8182 113.623 32.6477C113.802 32.4773 113.939 32.2685 114.032 32.0213L116.551 32.1875C116.423 32.7926 116.161 33.321 115.765 33.7727C115.373 34.2202 114.866 34.5696 114.243 34.821C113.626 35.0682 112.912 35.1918 112.102 35.1918ZM122.86 35.1918C121.85 35.1918 120.981 34.9872 120.252 34.5781C119.528 34.1648 118.969 33.581 118.577 32.8267C118.185 32.0682 117.989 31.1712 117.989 30.1357C117.989 29.1257 118.185 28.2393 118.577 27.4766C118.969 26.7138 119.521 26.1193 120.233 25.6932C120.949 25.267 121.788 25.054 122.751 25.054C123.399 25.054 124.002 25.1584 124.56 25.3672C125.123 25.5717 125.613 25.8807 126.03 26.294C126.452 26.7074 126.78 27.2273 127.015 27.8537C127.249 28.4759 127.366 29.2045 127.366 30.0398V30.7876H119.076V29.1001H124.803C124.803 28.7081 124.718 28.3608 124.547 28.0582C124.377 27.7557 124.14 27.5192 123.838 27.3487C123.54 27.174 123.192 27.0866 122.796 27.0866C122.383 27.0866 122.016 27.1825 121.697 27.3743C121.381 27.5618 121.134 27.8153 120.955 28.1349C120.776 28.4503 120.684 28.8018 120.68 29.1896V30.794C120.68 31.2798 120.77 31.6996 120.949 32.0533C121.132 32.407 121.39 32.6797 121.722 32.8714C122.055 33.0632 122.449 33.1591 122.905 33.1591C123.207 33.1591 123.484 33.1165 123.736 33.0312C123.987 32.946 124.202 32.8182 124.381 32.6477C124.56 32.4773 124.697 32.2685 124.79 32.0213L127.309 32.1875C127.181 32.7926 126.919 33.321 126.523 33.7727C126.131 34.2202 125.623 34.5696 125.001 34.821C124.383 35.0682 123.67 35.1918 122.86 35.1918ZM129.143 35V25.1818H131.738V26.9141H131.854C132.058 26.3388 132.399 25.8849 132.876 25.5526C133.354 25.2202 133.925 25.054 134.589 25.054C135.263 25.054 135.836 25.2223 136.309 25.5589C136.782 25.8913 137.097 26.343 137.255 26.9141H137.357C137.557 26.3516 137.92 25.902 138.444 25.5653C138.972 25.2244 139.596 25.054 140.317 25.054C141.233 25.054 141.976 25.3459 142.547 25.9297C143.123 26.5092 143.41 27.3317 143.41 28.397V35H140.694V28.9339C140.694 28.3885 140.549 27.9794 140.259 27.7067C139.969 27.4339 139.607 27.2976 139.172 27.2976C138.678 27.2976 138.292 27.4553 138.015 27.7706C137.738 28.0817 137.6 28.4929 137.6 29.0043V35H134.96V28.8764C134.96 28.3949 134.822 28.0114 134.545 27.7259C134.272 27.4403 133.912 27.2976 133.464 27.2976C133.162 27.2976 132.889 27.3743 132.646 27.5277C132.407 27.6768 132.218 27.8878 132.077 28.1605C131.937 28.429 131.866 28.7443 131.866 29.1065V35H129.143ZM153.73 27.9815L151.237 28.1349C151.195 27.9219 151.103 27.7301 150.963 27.5597C150.822 27.3849 150.637 27.2464 150.406 27.1442C150.181 27.0376 149.91 26.9844 149.595 26.9844C149.173 26.9844 148.817 27.0739 148.527 27.2528C148.237 27.4276 148.093 27.6619 148.093 27.956C148.093 28.1903 148.186 28.3885 148.374 28.5504C148.561 28.7124 148.883 28.8423 149.339 28.9403L151.116 29.2983C152.07 29.4943 152.782 29.8097 153.251 30.2443C153.72 30.679 153.954 31.25 153.954 31.9574C153.954 32.6009 153.764 33.1655 153.385 33.6513C153.01 34.1371 152.494 34.5163 151.838 34.7891C151.186 35.0575 150.434 35.1918 149.582 35.1918C148.282 35.1918 147.247 34.9212 146.475 34.38C145.708 33.8345 145.259 33.093 145.127 32.1555L147.805 32.0149C147.886 32.4112 148.082 32.7138 148.393 32.9226C148.704 33.1271 149.102 33.2294 149.588 33.2294C150.066 33.2294 150.449 33.1378 150.739 32.9545C151.033 32.767 151.182 32.5263 151.186 32.2322C151.182 31.9851 151.078 31.7827 150.873 31.625C150.669 31.4631 150.353 31.3395 149.927 31.2543L148.227 30.9155C147.268 30.7237 146.554 30.3913 146.085 29.9183C145.621 29.4453 145.389 28.8423 145.389 28.1094C145.389 27.4787 145.559 26.9354 145.9 26.4794C146.245 26.0234 146.729 25.6719 147.351 25.4247C147.977 25.1776 148.71 25.054 149.55 25.054C150.79 25.054 151.766 25.3161 152.477 25.8402C153.193 26.3643 153.611 27.0781 153.73 27.9815ZM162.142 35H159.176L163.695 21.9091H167.262L171.775 35H168.809L165.53 24.9006H165.428L162.142 35ZM161.957 29.8544H168.963V32.0149H161.957V29.8544ZM176.118 21.9091V35H173.351V21.9091H176.118ZM186.934 38.8864C186.052 38.8864 185.295 38.7649 184.665 38.522C184.038 38.2834 183.54 37.9574 183.169 37.544C182.798 37.1307 182.557 36.6662 182.447 36.1506L184.965 35.8118C185.042 36.0078 185.163 36.1911 185.329 36.3615C185.496 36.532 185.715 36.6683 185.988 36.7706C186.265 36.8771 186.601 36.9304 186.998 36.9304C187.59 36.9304 188.078 36.7855 188.461 36.4957C188.849 36.2102 189.043 35.7308 189.043 35.0575V33.2614H188.928C188.809 33.5341 188.63 33.7919 188.391 34.0348C188.153 34.2777 187.846 34.4759 187.471 34.6293C187.096 34.7827 186.648 34.8594 186.128 34.8594C185.391 34.8594 184.72 34.6889 184.115 34.348C183.514 34.0028 183.035 33.4766 182.677 32.7692C182.323 32.0575 182.146 31.1584 182.146 30.0717C182.146 28.9595 182.327 28.0305 182.689 27.2848C183.052 26.5391 183.533 25.9808 184.134 25.6101C184.739 25.2393 185.402 25.054 186.122 25.054C186.672 25.054 187.132 25.1477 187.503 25.3352C187.873 25.5185 188.172 25.7486 188.398 26.0256C188.628 26.2983 188.805 26.5668 188.928 26.831H189.03V25.1818H191.734V35.0959C191.734 35.9311 191.53 36.63 191.121 37.1925C190.711 37.755 190.145 38.1768 189.42 38.4581C188.7 38.7436 187.871 38.8864 186.934 38.8864ZM186.991 32.8139C187.43 32.8139 187.801 32.7053 188.104 32.4879C188.41 32.2663 188.645 31.951 188.807 31.5419C188.973 31.1286 189.056 30.6342 189.056 30.0589C189.056 29.4837 188.975 28.9851 188.813 28.5632C188.651 28.1371 188.417 27.8068 188.11 27.5724C187.803 27.3381 187.43 27.2209 186.991 27.2209C186.544 27.2209 186.167 27.3423 185.86 27.5852C185.553 27.8239 185.321 28.1562 185.163 28.5824C185.006 29.0085 184.927 29.5007 184.927 30.0589C184.927 30.6257 185.006 31.1158 185.163 31.5291C185.325 31.9382 185.557 32.2557 185.86 32.4815C186.167 32.7031 186.544 32.8139 186.991 32.8139ZM198.376 35.1918C197.366 35.1918 196.496 34.9872 195.768 34.5781C195.043 34.1648 194.485 33.581 194.093 32.8267C193.701 32.0682 193.505 31.1712 193.505 30.1357C193.505 29.1257 193.701 28.2393 194.093 27.4766C194.485 26.7138 195.037 26.1193 195.748 25.6932C196.464 25.267 197.304 25.054 198.267 25.054C198.915 25.054 199.518 25.1584 200.076 25.3672C200.638 25.5717 201.128 25.8807 201.546 26.294C201.968 26.7074 202.296 27.2273 202.53 27.8537C202.765 28.4759 202.882 29.2045 202.882 30.0398V30.7876H194.591V29.1001H200.319C200.319 28.7081 200.233 28.3608 200.063 28.0582C199.893 27.7557 199.656 27.5192 199.354 27.3487C199.055 27.174 198.708 27.0866 198.312 27.0866C197.898 27.0866 197.532 27.1825 197.212 27.3743C196.897 27.5618 196.65 27.8153 196.471 28.1349C196.292 28.4503 196.2 28.8018 196.196 29.1896V30.794C196.196 31.2798 196.285 31.6996 196.464 32.0533C196.648 32.407 196.905 32.6797 197.238 32.8714C197.57 33.0632 197.964 33.1591 198.42 33.1591C198.723 33.1591 199 33.1165 199.251 33.0312C199.503 32.946 199.718 32.8182 199.897 32.6477C200.076 32.4773 200.212 32.2685 200.306 32.0213L202.824 32.1875C202.697 32.7926 202.434 33.321 202.038 33.7727C201.646 34.2202 201.139 34.5696 200.517 34.821C199.899 35.0682 199.185 35.1918 198.376 35.1918ZM207.382 29.3239V35H204.659V25.1818H207.254V26.9141H207.369C207.586 26.343 207.951 25.8913 208.462 25.5589C208.974 25.2223 209.594 25.054 210.322 25.054C211.004 25.054 211.599 25.2031 212.106 25.5014C212.613 25.7997 213.007 26.2259 213.288 26.7798C213.569 27.3295 213.71 27.9858 213.71 28.7486V35H210.987V29.2344C210.991 28.6335 210.838 28.1648 210.527 27.8281C210.216 27.4872 209.787 27.3168 209.242 27.3168C208.876 27.3168 208.552 27.3956 208.27 27.5533C207.993 27.7109 207.776 27.9411 207.618 28.2436C207.465 28.5419 207.386 28.902 207.382 29.3239ZM220.331 35.1918C219.321 35.1918 218.451 34.9872 217.723 34.5781C216.998 34.1648 216.44 33.581 216.048 32.8267C215.656 32.0682 215.46 31.1712 215.46 30.1357C215.46 29.1257 215.656 28.2393 216.048 27.4766C216.44 26.7138 216.992 26.1193 217.703 25.6932C218.419 25.267 219.259 25.054 220.222 25.054C220.87 25.054 221.473 25.1584 222.031 25.3672C222.593 25.5717 223.083 25.8807 223.501 26.294C223.923 26.7074 224.251 27.2273 224.485 27.8537C224.72 28.4759 224.837 29.2045 224.837 30.0398V30.7876H216.547V29.1001H222.274C222.274 28.7081 222.189 28.3608 222.018 28.0582C221.848 27.7557 221.611 27.5192 221.309 27.3487C221.01 27.174 220.663 27.0866 220.267 27.0866C219.853 27.0866 219.487 27.1825 219.167 27.3743C218.852 27.5618 218.605 27.8153 218.426 28.1349C218.247 28.4503 218.155 28.8018 218.151 29.1896V30.794C218.151 31.2798 218.24 31.6996 218.419 32.0533C218.603 32.407 218.86 32.6797 219.193 32.8714C219.525 33.0632 219.919 33.1591 220.375 33.1591C220.678 33.1591 220.955 33.1165 221.206 33.0312C221.458 32.946 221.673 32.8182 221.852 32.6477C222.031 32.4773 222.167 32.2685 222.261 32.0213L224.779 32.1875C224.652 32.7926 224.39 33.321 223.993 33.7727C223.601 34.2202 223.094 34.5696 222.472 34.821C221.854 35.0682 221.14 35.1918 220.331 35.1918ZM226.614 35V25.1818H229.254V26.8949H229.356C229.535 26.2855 229.836 25.8253 230.257 25.5142C230.679 25.1989 231.165 25.0412 231.715 25.0412C231.851 25.0412 231.998 25.0497 232.156 25.0668C232.314 25.0838 232.452 25.1072 232.571 25.1371V27.5533C232.444 27.5149 232.267 27.4808 232.041 27.451C231.815 27.4212 231.608 27.4062 231.421 27.4062C231.02 27.4062 230.662 27.4936 230.347 27.6683C230.036 27.8388 229.789 28.0774 229.605 28.3842C229.426 28.6911 229.337 29.0447 229.337 29.4453V35H226.614ZM236.498 35.1854C235.871 35.1854 235.313 35.0767 234.823 34.8594C234.333 34.6378 233.945 34.3118 233.66 33.8814C233.378 33.4467 233.238 32.9055 233.238 32.2578C233.238 31.7124 233.338 31.2543 233.538 30.8835C233.738 30.5128 234.011 30.2145 234.356 29.9886C234.702 29.7628 235.094 29.5923 235.532 29.4773C235.976 29.3622 236.44 29.2812 236.926 29.2344C237.497 29.1747 237.957 29.1193 238.307 29.0682C238.656 29.0128 238.91 28.9318 239.067 28.8253C239.225 28.7187 239.304 28.5611 239.304 28.3523V28.3139C239.304 27.9091 239.176 27.5959 238.92 27.3743C238.669 27.1527 238.311 27.0419 237.846 27.0419C237.356 27.0419 236.966 27.1506 236.677 27.3679C236.387 27.581 236.195 27.8494 236.101 28.1733L233.583 27.9688C233.711 27.3722 233.962 26.8565 234.337 26.4219C234.712 25.983 235.196 25.6463 235.788 25.4119C236.385 25.1733 237.075 25.054 237.859 25.054C238.405 25.054 238.927 25.1179 239.425 25.2457C239.928 25.3736 240.373 25.5717 240.761 25.8402C241.153 26.1087 241.462 26.4538 241.688 26.8757C241.914 27.2933 242.027 27.794 242.027 28.3778V35H239.444V33.6385H239.368C239.21 33.9453 238.999 34.2159 238.735 34.4503C238.471 34.6804 238.153 34.8615 237.782 34.9936C237.412 35.1214 236.983 35.1854 236.498 35.1854ZM237.278 33.3061C237.678 33.3061 238.032 33.2273 238.339 33.0696C238.645 32.9077 238.886 32.6903 239.061 32.4176C239.236 32.1449 239.323 31.8359 239.323 31.4908V30.4489C239.238 30.5043 239.121 30.5554 238.971 30.6023C238.827 30.6449 238.662 30.6854 238.479 30.7237C238.296 30.7578 238.113 30.7898 237.93 30.8196C237.746 30.8452 237.58 30.8686 237.431 30.8899C237.111 30.9368 236.832 31.0114 236.594 31.1136C236.355 31.2159 236.17 31.3544 236.037 31.5291C235.905 31.6996 235.839 31.9126 235.839 32.1683C235.839 32.5391 235.974 32.8224 236.242 33.0185C236.515 33.2102 236.86 33.3061 237.278 33.3061ZM249.362 25.1818V27.2273H243.449V25.1818H249.362ZM244.791 22.8295H247.514V31.983C247.514 32.2344 247.553 32.4304 247.629 32.571C247.706 32.7074 247.813 32.8033 247.949 32.8587C248.09 32.9141 248.252 32.9418 248.435 32.9418C248.563 32.9418 248.691 32.9311 248.818 32.9098C248.946 32.8842 249.044 32.8651 249.112 32.8523L249.541 34.8786C249.404 34.9212 249.213 34.9702 248.965 35.0256C248.718 35.0852 248.418 35.1214 248.064 35.1342C247.408 35.1598 246.833 35.0724 246.338 34.8722C245.848 34.6719 245.467 34.3608 245.194 33.9389C244.921 33.517 244.787 32.9844 244.791 32.3409V22.8295ZM255.504 35.1918C254.494 35.1918 253.625 34.9872 252.896 34.5781C252.172 34.1648 251.614 33.581 251.222 32.8267C250.83 32.0682 250.634 31.1712 250.634 30.1357C250.634 29.1257 250.83 28.2393 251.222 27.4766C251.614 26.7138 252.166 26.1193 252.877 25.6932C253.593 25.267 254.433 25.054 255.396 25.054C256.044 25.054 256.646 25.1584 257.205 25.3672C257.767 25.5717 258.257 25.8807 258.675 26.294C259.097 26.7074 259.425 27.2273 259.659 27.8537C259.894 28.4759 260.011 29.2045 260.011 30.0398V30.7876H251.72V29.1001H257.448C257.448 28.7081 257.362 28.3608 257.192 28.0582C257.021 27.7557 256.785 27.5192 256.482 27.3487C256.184 27.174 255.837 27.0866 255.441 27.0866C255.027 27.0866 254.661 27.1825 254.341 27.3743C254.026 27.5618 253.779 27.8153 253.6 28.1349C253.421 28.4503 253.329 28.8018 253.325 29.1896V30.794C253.325 31.2798 253.414 31.6996 253.593 32.0533C253.776 32.407 254.034 32.6797 254.367 32.8714C254.699 33.0632 255.093 33.1591 255.549 33.1591C255.852 33.1591 256.129 33.1165 256.38 33.0312C256.632 32.946 256.847 32.8182 257.026 32.6477C257.205 32.4773 257.341 32.2685 257.435 32.0213L259.953 32.1875C259.825 32.7926 259.563 33.321 259.167 33.7727C258.775 34.2202 258.268 34.5696 257.646 34.821C257.028 35.0682 256.314 35.1918 255.504 35.1918ZM265.406 35.1598C264.66 35.1598 263.985 34.968 263.379 34.5845C262.779 34.1967 262.301 33.6278 261.948 32.8778C261.598 32.1236 261.423 31.1989 261.423 30.1037C261.423 28.9787 261.605 28.0433 261.967 27.2976C262.329 26.5476 262.811 25.9872 263.411 25.6165C264.017 25.2415 264.679 25.054 265.399 25.054C265.949 25.054 266.407 25.1477 266.774 25.3352C267.144 25.5185 267.443 25.7486 267.669 26.0256C267.899 26.2983 268.073 26.5668 268.193 26.831H268.276V21.9091H270.992V35H268.308V33.4276H268.193C268.065 33.7003 267.884 33.9709 267.649 34.2393C267.419 34.5036 267.119 34.723 266.748 34.8977C266.382 35.0724 265.934 35.1598 265.406 35.1598ZM266.269 32.9929C266.708 32.9929 267.078 32.8736 267.381 32.6349C267.688 32.392 267.922 32.0533 268.084 31.6186C268.25 31.1839 268.333 30.6747 268.333 30.0909C268.333 29.5071 268.252 29 268.09 28.5696C267.928 28.1392 267.694 27.8068 267.387 27.5724C267.08 27.3381 266.708 27.2209 266.269 27.2209C265.821 27.2209 265.444 27.3423 265.137 27.5852C264.83 27.8281 264.598 28.1648 264.441 28.5952C264.283 29.0256 264.204 29.5241 264.204 30.0909C264.204 30.6619 264.283 31.1669 264.441 31.6058C264.602 32.0405 264.835 32.3814 265.137 32.6286C265.444 32.8714 265.821 32.9929 266.269 32.9929Z" fill="#791F1F"/>
</svg>
