<svg width="44" height="44" viewBox="0 0 44 44" fill="none" xmlns="http://www.w3.org/2000/svg">
<g clip-path="url(#clip0_14_41)">
<path fill-rule="evenodd" clip-rule="evenodd" d="M9.18707 21.2203L11.537 18.8703C12.2529 18.1543 13.4137 18.1543 14.1297 18.8703C14.8457 19.5862 14.8457 20.7471 14.1297 21.463L8.6297 26.963C8.28588 27.3068 7.81957 27.5 7.33333 27.5C6.8471 27.5 6.38079 27.3068 6.03696 26.963L0.536971 21.463C-0.17899 20.7471 -0.17899 19.5862 0.536971 18.8703C1.25293 18.1543 2.41373 18.1543 3.1297 18.8703L5.51487 21.2555C5.9055 11.4754 13.9575 3.66667 23.8333 3.66667C33.9587 3.66667 42.1667 11.8748 42.1667 22C42.1667 32.1251 33.9587 40.3333 23.8333 40.3333C18.0733 40.3333 12.9329 37.6748 9.57484 33.5251C8.93792 32.738 9.05967 31.5836 9.84678 30.9467C10.6339 30.3098 11.7883 30.4315 12.4252 31.2185C15.117 34.5449 19.2267 36.6667 23.8333 36.6667C31.9336 36.6667 38.5 30.1002 38.5 22C38.5 13.8998 31.9336 7.33333 23.8333 7.33333C15.9948 7.33333 9.5924 13.4826 9.18707 21.2203ZM23.8333 9.16667C24.8459 9.16667 25.6667 9.98749 25.6667 11V21.2406L30.6297 26.2036C31.3456 26.9196 31.3456 28.0804 30.6297 28.7964C29.9138 29.5123 28.7529 29.5123 28.037 28.7964L22.537 23.2964C22.1933 22.9526 22 22.4862 22 22V11C22 9.98749 22.8208 9.16667 23.8333 9.16667Z" fill="#EBE9FC"/>
</g>
<defs>
<clipPath id="clip0_14_41">
<rect width="44" height="44" fill="white"/>
</clipPath>
</defs>
</svg>
