<svg width="50" height="64" viewBox="0 0 50 64" fill="none" xmlns="http://www.w3.org/2000/svg">
<path d="M30.7406 1.91212C34.0257 4.11724 35.7373 6.69798 36.9409 10.4618C37.1159 11.4279 37.0886 12.3688 37.0797 13.35C37.077 13.7379 37.0742 14.1258 37.0714 14.5255C37.0679 14.8216 37.0645 15.1176 37.0609 15.4227C37.2595 15.3213 37.4581 15.22 37.6628 15.1156C38.9297 15.0434 40.1979 15.0455 41.4666 15.0418C42.0955 15.0389 42.7241 15.0294 43.3529 15.0197C43.7558 15.0176 44.1586 15.016 44.5615 15.0149C44.9264 15.012 45.2914 15.0091 45.6675 15.0062C46.8275 15.1301 47.5221 15.3871 48.4975 16.0368C49.4014 17.1778 49.5113 18.0573 49.4992 19.502C49.4979 19.8825 49.4967 20.2629 49.4954 20.6549C49.4892 21.0667 49.4826 21.4784 49.4757 21.8901C49.471 22.3166 49.4666 22.7431 49.4624 23.1696C49.4524 24.0464 49.4388 24.9231 49.4226 25.7998C49.4004 27.0086 49.3917 28.2172 49.3828 29.4262C49.2413 39.8565 45.521 47.3794 38.2812 54.7213C36.1463 56.8123 33.8067 58.5883 31.3425 60.2531C31.1501 60.3841 30.9577 60.515 30.7594 60.65C26.5346 63.4904 26.5346 63.4904 24.8424 63.5C19.3931 62.1711 14.1216 57.1369 10.275 53.1908C10.01 52.9204 9.74503 52.6501 9.47202 52.3716C3.56087 46.0415 0.630965 38.5855 0.572399 29.8712C0.569969 29.5246 0.56754 29.1781 0.565037 28.821C0.560892 28.0917 0.557656 27.3624 0.555278 26.6331C0.551795 25.8881 0.545615 25.143 0.536762 24.398C0.523944 23.3181 0.519057 22.2384 0.515968 21.1584C0.510698 20.8264 0.505429 20.4943 0.5 20.1522C0.505293 18.2792 0.59972 17.1453 1.84797 15.7297C2.7494 15.2699 3.69729 15.3062 4.68833 15.2499C4.905 15.2371 5.12168 15.2243 5.34492 15.2111C7.92301 15.0674 10.4252 15.0287 12.9837 15.4227C12.9732 15.1258 12.9627 14.8289 12.9519 14.5231C12.8643 10.225 13.597 7.23296 16.5811 4.04833C20.3778 0.472174 26.0998 -0.693098 30.7406 1.91212ZM19.003 8.36034C17.6053 10.5468 17.7991 12.8763 17.7991 15.4227C22.4671 15.4227 27.135 15.4227 31.9445 15.4227C32.063 10.9363 32.063 10.9363 29.8777 7.47754C26.4485 4.64601 21.9323 5.03875 19.003 8.36034ZM5.76051 20.3356C5.36342 35.1465 5.36342 35.1465 12.0808 47.6637C12.3287 47.9578 12.5766 48.2519 12.832 48.5549C14.8052 50.8488 16.924 52.8783 19.3039 54.7261C19.5133 54.8943 19.7227 55.0626 19.9385 55.236C22.1601 56.9877 22.1601 56.9877 24.7213 58.1037C26.4561 57.848 27.591 57.019 28.9348 55.9543C29.2436 55.739 29.5524 55.5236 29.8706 55.3018C32.1371 53.6724 34.1541 51.7595 36.158 49.8131C36.3628 49.6204 36.5676 49.4276 36.7787 49.229C38.8548 47.2196 40.3129 44.8224 41.6318 42.2518C41.7766 41.9802 41.7766 41.9802 41.9244 41.7032C45.2321 35.0036 43.983 27.6299 43.983 20.3356C31.3696 20.3356 18.7562 20.3356 5.76051 20.3356Z" fill="url(#paint0_linear_14_37)"/>
<path d="M34.0227 24.9415C34.793 25.3269 35.5247 25.7233 36.2652 26.1607C36.5626 26.3304 36.5626 26.3304 36.866 26.5035C39.0304 27.761 39.0304 27.761 39.6072 28.5315C39.6069 30.0145 38.7839 31.0855 37.975 32.2543C37.7971 32.5198 37.7971 32.5198 37.6156 32.7906C36.959 33.7597 36.2722 34.6924 35.5504 35.6118C34.6511 36.7802 33.8412 37.9955 33.0394 39.2342C32.8493 39.527 32.8493 39.527 32.6554 39.8256C32.1282 40.6388 31.6018 41.4524 31.0803 42.2695C30.6946 42.8727 30.3044 43.4727 29.9134 44.0724C29.7978 44.2562 29.6821 44.4399 29.563 44.6292C28.8043 45.7832 28.0907 46.4081 26.858 46.9947C26.5887 46.8249 26.3195 46.655 26.0421 46.48C25.6759 46.2496 25.3098 46.0193 24.9437 45.7889C24.7677 45.6778 24.5918 45.5668 24.4105 45.4524C23.4381 44.8411 22.4599 44.2472 21.4666 43.672C19.486 42.4969 17.583 41.1988 15.6793 39.8996C15.242 39.6024 14.8035 39.3071 14.3638 39.0137C13.7221 38.5855 13.9216 38.734 13.2846 38.2985C13.0883 38.169 13.7878 38.6239 13.5856 38.4906C13.8865 38.4906 13.7289 38.5874 13.4279 38.3838C13.6512 37.7546 14.0884 37.4577 14.5184 36.883C14.6759 36.6717 15.3724 35.5654 15.5347 35.3477C15.7122 35.1253 16.1056 34.5081 16.9758 33.3518C17.2543 32.9819 17.8088 31.9059 18.0929 31.5285C18.2505 28.9332 21.554 28.8775 18.0929 31.0269C15.6852 30.7199 18.6388 29.1384 18.1673 31.0269C18.4011 31.1798 18.2466 31.1274 18.4875 31.2849C19.87 32.198 21.1916 33.1567 22.4704 34.2165C23.2899 34.8687 24.0915 35.3459 25.0407 35.7817C25.9115 35.4126 24.9238 36.6743 25.0407 35.9955C25.1418 35.6239 26.1295 34.3622 26.2327 33.983C26.6139 33.3352 27.0159 32.6998 27.43 32.0733C27.608 31.8036 27.608 31.8036 27.7895 31.5285C28.0402 31.1498 28.2917 30.7716 28.544 30.3941C28.9288 29.8175 29.3099 29.2385 29.6906 28.659C29.9351 28.2906 30.1798 27.9222 30.4248 27.5541C30.6466 27.2202 30.8684 26.8864 31.097 26.5424C31.9702 25.3664 32.5199 24.6511 34.0227 24.9415Z" fill="#21791F"/>
<defs>
<linearGradient id="paint0_linear_14_37" x1="25" y1="0.5" x2="25" y2="63.5" gradientUnits="userSpaceOnUse">
<stop stop-color="#0600C2"/>
<stop offset="1" stop-color="#545284"/>
</linearGradient>
</defs>
</svg>
