<svg width="91" height="92" viewBox="0 0 91 92" fill="none" xmlns="http://www.w3.org/2000/svg">
<g clip-path="url(#clip0_1_55)">
<path d="M82.6242 57.6666L72.7311 43.4889V39.6603V37.5536V18.5239C72.7311 17.2878 72.2485 16.1254 71.3747 15.2534L57.9759 1.85326C57.1022 0.979694 55.9387 0.5 54.7067 0.5H14.3827C10.0388 0.5 6.50635 4.03394 6.50635 8.37639V79.4011C6.50635 83.7433 10.039 87.2775 14.3827 87.2775H43.9108H51.2719C51.6244 87.7483 51.9976 88.2042 52.427 88.6129C54.2867 90.391 56.7915 91.5 59.5633 91.5C64.5558 91.5 59.3322 91.5 65.9326 91.5C68.701 91.5 71.212 90.3912 73.0718 88.6129C75.2392 86.5446 76.2873 83.8262 76.2873 81.1451V73.7198C79.293 73.0863 81.869 71.1497 83.3141 68.3796C85.1049 64.948 84.8417 60.8424 82.6242 57.6666ZM31.5275 77.3978H16.2038V10.3797H48.7668V19.0453C48.7668 22.1324 51.2778 24.6446 54.3662 24.6446H63.0333V36.9478H62.986V36.9551C59.708 36.8781 56.4006 38.3053 54.2867 41.3034L42.8715 57.6664C40.6538 60.8422 40.3902 64.9478 42.1816 68.3796C43.6264 71.1497 46.2023 73.0863 49.2084 73.7198V77.3976H47.3011H31.5275V77.3978ZM76.0532 64.5897C75.677 65.3063 74.943 65.7521 74.1372 65.7521H74.1343H68.0964V81.1453C68.0964 82.3384 67.1253 83.3068 65.9354 83.3068H65.9322H59.5631H59.56C58.3694 83.3068 57.3984 82.3384 57.3984 81.1453V65.7521H51.3607H51.3577C50.5522 65.7521 49.8178 65.3063 49.4419 64.5897C49.069 63.8731 49.1222 63.0161 49.587 62.3525L60.9722 46.0296C61.3779 45.4507 62.0415 45.1058 62.746 45.1058H62.7491C63.4538 45.1058 64.117 45.4507 64.5226 46.0296L75.9083 62.3525C76.3728 63.0159 76.4262 63.8731 76.0532 64.5897Z" fill="#EBE9FC"/>
</g>
<defs>
<clipPath id="clip0_1_55">
<rect width="91" height="91" fill="white" transform="translate(0 0.5)"/>
</clipPath>
</defs>
</svg>
